<?xml version="1.0" encoding="UTF-8"?> <svg xmlns="http://www.w3.org/2000/svg" id="Livello_1" viewBox="0 0 430.12 93.4"><defs><style>.cls-1{fill-rule:evenodd;}.cls-1,.cls-2{fill:#012539;}</style></defs><path class="cls-2" d="M156.02,28.95l-20.81,35.88c-.45.78-1.12,1.22-2.12,1.22h-7.61c-.89,0-1.68-.45-2.12-1.22l-21.03-35.88,4.36-2.33,20.25,34.56h4.7l20.14-34.56,4.25,2.33Z"></path><path class="cls-2" d="M198.98,47.89c0-3.21-.11-5.65-.34-7.42-.34-2.22-.78-3.65-1.34-4.43-.78-.89-2.12-1.44-4.25-1.77-2.12-.34-4.58-.56-7.61-.56h-7.5c-4.81,0-8.5.22-11.08.66-2.12.33-3.58,1.33-4.25,2.99-.67,1.66-1.01,5.1-1.01,10.3,0,3.43.22,8.3.67,9.64.45,1.44,1.12,2.43,2.12,3.1.9.44,2.24.77,4.14.99,2.57.22,6.15.34,10.85.34h7.05c2.68,0,5.03-.22,6.94-.55,1.57-.33,2.8-.77,3.47-1.44.67-.66,1.23-1.77,1.57-3.32.34-1.77.56-4.65.56-8.53M203.45,47.77c0,5.65-.45,9.64-1.34,11.85-.9,2.55-2.69,4.32-5.37,5.1-2.46.78-6.6,1.22-12.31,1.22h-5.71c-4.36,0-7.94-.11-10.52-.33-3.36-.33-5.71-.99-7.16-2.1-1.68-1.22-2.8-3.32-3.36-6.32-.34-1.77-.56-4.65-.56-8.86,0-5.98.56-10.19,1.45-12.62,1.01-2.66,2.91-4.43,5.93-5.21,2.35-.66,6.82-.99,13.2-.99,8.05,0,13.42.11,16,.44,3.47.56,5.82,1.55,7.05,2.88,1.12,1.22,1.79,3.65,2.24,7.09.34,2.1.45,4.76.45,7.86"></path><path class="cls-2" d="M242.49,65.83h-31.21c-1.68,0-2.46-.78-2.46-2.44V29.61h4.92v31.34h28.75v4.87Z"></path><path class="cls-2" d="M286.46,42.24c0,5.54-1.46,9.19-4.14,10.96-2.01,1.33-6.04,1.99-11.97,1.99h-18.24l-.11-4.65h20.81c3.58,0,5.93-.44,7.05-1.55,1.23-1.11,1.9-3.44,1.9-6.98,0-4.98-1.45-6.76-4.36-7.53-1.34-.33-4.47-.44-9.4-.44h-15.55v31.68h-4.7V31.72c0-1.44.78-2.22,2.35-2.22h19.91c6.04,0,10.29.44,12.31,2.1,2.57,1.99,4.14,4.87,4.14,10.63"></path><path class="cls-2" d="M345.98,65.83h-4.92v-32.41h4.92v32.41ZM362.2,33.93h-36.92v-4.32h36.92v4.32Z"></path><path class="cls-2" d="M407.62,47.89c0-3.1-.11-5.65-.34-7.42-.22-2.22-.67-3.65-1.34-4.32-.67-.89-2.13-1.55-4.25-1.88-2.12-.34-4.7-.55-7.61-.55h-7.61c-4.92,0-8.61.22-11.19.66-2.24.44-3.69,1.44-4.36,2.99-.67,1.66-1.01,5.1-1.01,10.3,0,3.43.22,8.31.67,9.64.45,1.44,1.12,2.55,2.24,3.1.78.44,2.24.78,4.14.99,2.57.22,6.15.34,10.96.34,8.61,0,10.96,0,7.05.11,2.8-.11,5.15-.22,7.05-.66,1.68-.22,2.8-.67,3.47-1.33.78-.66,1.23-1.77,1.57-3.32.45-1.88.56-4.65.56-8.64M412.21,47.89c0,5.54-.45,9.52-1.34,11.74-.89,2.66-2.8,4.32-5.48,5.21-2.46.78-6.6,1.11-12.42,1.11h-5.71c-4.48,0-8.06-.11-10.74-.33-3.36-.33-5.71-.99-7.16-2.1-1.68-1.22-2.8-3.32-3.36-6.31-.33-1.66-.56-4.65-.56-8.86,0-5.98.45-10.19,1.45-12.51,1.01-2.66,2.91-4.43,5.93-5.32,2.46-.66,6.94-.99,13.31-.99,8.28,0,13.65.22,16.22.55,3.47.55,5.93,1.44,7.16,2.88,1.12,1.22,1.79,3.54,2.24,6.98.22,2.21.45,4.76.45,7.97"></path><path class="cls-2" d="M331.55,68.71l-20.25-34.56h-4.7l-20.25,34.56-4.25-2.22,21.03-36c.45-.77,1.12-1.22,2.01-1.22h7.61c1.01,0,1.68.44,2.13,1.22l20.92,36-4.25,2.22Z"></path><path class="cls-1" d="M63.15,12.66s-4.36,15.29-5.59,20.27c-1.12,4.98,1.57,10.08,6.38,11.41,4.81,1.33,20.92,5.54,20.92,5.54,6.71,2.55,4.36,13.4-3.24,12.52-3.13-.78-14.88-3.77-19.24-4.99-4.36-1.11-6.15-1.22-8.84.55l-.34.22c-.56.22-2.68,1.66-4.03,6.42-2.69,9.64-5.26,19.83-5.26,19.83-3.47,7.53-13.99,2.66-12.75-3.44,0,0,4.14-15.17,5.26-20.16,1.12-4.98-1.79-10.85-6.6-12.18-4.7-1.33-20.47-5.43-20.47-5.43-6.6-2.55-4.36-13.18,3.24-12.29,3.13.78,14.54,3.76,18.91,4.98,4.36,1.11,6.15,1.22,8.61-.22l.34-.22c.56-.33,3.47-1.99,4.7-6.76.78-2.99,5.26-19.49,5.26-19.49,4.03-7.53,14.43-2.77,12.75,3.43M65.95,38.14c-.45-.11-3.36-.89-2.35-3.87.9-3.1,3.24-12.18,4.14-15.28.9-3.1,6.38-5.54,8.62-1.66l11.3,19.05c1.46,2.55-1.23,7.09-5.7,5.98l-16-4.21ZM57.45,86.54c-2.57,1.44-7.61-.55-6.49-4.99,1.01-4.43,4.25-15.62,4.25-15.62,0-.89,1.9-3.43,5.04-2.55,3.36,1,12.42,3.32,15.21,4.21,3.13.89,5.37,5.65,1.45,7.86l-19.47,11.08ZM26.12,74.91c-.9,2.99-5.71,4.98-8.06,1.11l-11.41-19.05c-1.57-2.55.67-7.42,5.15-6.32,4.36,1,15.77,4.32,15.77,4.32.45.11,3.69,1.33,2.8,4.43l-4.25,15.51ZM12.25,27.4C2.41,26.51.84,32.6.06,35.7c-.34,2.22.67,8.41,7.05,10.63C-.06,49.77-.73,56.08,1.85,60.4l10.74,18.38c2.46,4.32,8.39,6.87,14.99,2.43-1.68,6.65,3.58,10.63,5.71,11.52,2.46.66,9.85,2.66,13.31-6.43,1.68,4.21,6.94,8.09,12.64,6.09l21.81-12.4c4.7-3.77,3.92-10.41,1.12-13.96,9.84.89,12.08-6.87,12.19-8.31.34-2.21-.67-8.41-7.16-10.74,7.27-3.32,7.83-9.86,5.26-14.18l-10.63-18.17c-2.46-4.32-8.39-6.98-14.99-2.55,1.23-6.64-3.58-10.52-5.71-11.29-1.34-.67-9.4-3.21-13.65,6.2-1.79-4.65-7.72-8.97-13.98-5.32L14.6,12.45c-6.27,3.65-5.48,10.96-2.35,14.95M36.86,6.58c2.57-1.55,7.27,1,6.26,5.32-1.12,4.43-4.47,15.95-4.47,15.95,0,.33-.9,2.99-4.03,2.1-3.02-.89-12.87-3.32-16-4.32-3.02-.88-5.15-5.32-1.23-7.53l19.47-11.52Z"></path><path class="cls-2" d="M430.12,28.72c0,1.23-.31,2.38-.92,3.44-.62,1.06-1.46,1.9-2.53,2.52-1.07.62-2.22.92-3.46.92s-2.39-.31-3.45-.92c-1.07-.62-1.92-1.46-2.53-2.52-.62-1.06-.92-2.21-.92-3.45s.31-2.38.92-3.45c.62-1.06,1.46-1.9,2.53-2.52,1.07-.62,2.22-.93,3.46-.93s2.39.31,3.46.93c1.07.62,1.91,1.46,2.53,2.52.62,1.06.92,2.22.92,3.46M428.7,28.74c0-1.53-.53-2.82-1.6-3.89-1.07-1.07-2.36-1.6-3.86-1.6s-2.82.53-3.9,1.6c-1.07,1.06-1.61,2.35-1.61,3.85,0,.98.24,1.88.73,2.72.48.84,1.15,1.5,2.01,1.98.85.49,1.77.73,2.75.73s1.89-.24,2.74-.73c.85-.48,1.52-1.14,2.01-1.98.49-.83.73-1.73.73-2.68M420.35,24.95h3.35c.7,0,1.22.08,1.55.23.33.16.6.4.8.74.2.34.3.74.3,1.22,0,.4-.06.73-.19.99-.12.26-.36.51-.7.75.28.16.47.33.57.53.1.2.16.54.19,1.03.04.94.08,1.48.12,1.64.04.15.15.3.32.44h-1.9c-.08-.2-.14-.38-.16-.51-.03-.14-.04-.38-.05-.71-.02-.67-.05-1.08-.11-1.23-.05-.16-.15-.27-.28-.35-.13-.08-.41-.12-.82-.12h-1.34v2.93h-1.66v-7.57ZM422.01,26.4v1.79h1.39c.53,0,.89-.07,1.07-.21.17-.14.26-.38.26-.7s-.08-.54-.26-.68c-.17-.14-.53-.2-1.06-.2h-1.4Z"></path></svg> 